<svg width="16" height="8" viewBox="0 0 16 8" fill="none" xmlns="http://www.w3.org/2000/svg">
<path d="M0.292432 0.355527C0.619931 0.103649 1.08925 0.164153 1.34223 0.490293L1.34478 0.493492C1.34816 0.497713 1.35472 0.505812 1.36448 0.517477C1.38399 0.540814 1.41624 0.578368 1.46135 0.627647C1.55162 0.726269 1.69298 0.871412 1.88633 1.04332C2.27335 1.38742 2.86585 1.83627 3.67161 2.23503C4.72929 2.75847 6.16282 3.20003 7.99966 3.20003C9.83651 3.20003 11.27 2.75847 12.3277 2.23503C13.1335 1.83627 13.726 1.38742 14.113 1.04332C14.3063 0.871412 14.4477 0.726269 14.538 0.627647C14.5831 0.578368 14.6153 0.540814 14.6349 0.517476C14.6446 0.505812 14.6512 0.497713 14.6545 0.493492L14.6568 0.490686C14.9098 0.164528 15.3794 0.103644 15.7069 0.355527C16.0352 0.608049 16.0967 1.07893 15.8442 1.40727L15.8429 1.40892L15.8413 1.41097L15.8372 1.41627L15.8251 1.4315C15.8153 1.44369 15.8021 1.45988 15.7855 1.47974C15.7523 1.51945 15.7053 1.5739 15.6444 1.64044C15.5227 1.77345 15.3449 1.9552 15.1097 2.16431C14.758 2.477 14.2764 2.85225 13.6607 3.21715L14.8819 5.60899C15.0703 5.9779 14.9239 6.42965 14.555 6.61801C14.1861 6.80636 13.7343 6.65999 13.546 6.29108L12.317 3.88408C11.3369 4.28421 10.1493 4.59469 8.74966 4.67794V6.95003C8.74966 7.36425 8.41388 7.70003 7.99966 7.70003C7.58545 7.70003 7.24966 7.36425 7.24966 6.95003V4.67794C5.85001 4.59469 4.66248 4.28421 3.68229 3.88408L2.45335 6.29108C2.265 6.65999 1.81324 6.80636 1.44433 6.61801C1.07542 6.42965 0.929051 5.9779 1.11741 5.60899L2.33861 3.21715C1.72289 2.85225 1.24133 2.477 0.889647 2.16431C0.654451 1.9552 0.476642 1.77345 0.354889 1.64044C0.293984 1.5739 0.247008 1.51945 0.213799 1.47974C0.197191 1.45988 0.184015 1.44369 0.174251 1.4315L0.162157 1.41627L0.158021 1.41097L0.15643 1.40892L0.155753 1.40804C-0.0967688 1.0797 -0.0359056 0.608049 0.292432 0.355527Z" fill="#3F434A"/>
</svg>
